<svg viewBox="0 0 129 129" xmlns="http://www.w3.org/2000/svg" class="swiper-logo h-16 w-16 rounded-full" alt="Swiper"><path d="M97.922 10.346c18.251 11.274 30.413 31.461 30.413 54.489 0 35.346-28.654 64-64 64a63.81 63.81 0 01-21.94-3.862l-.73-.272 1.19-.383 1.53-.501.755-.253.748-.253 1.476-.508 1.449-.512 1.422-.515 1.394-.518.688-.261 1.354-.524c1.43-.56 2.815-1.127 4.153-1.7l.995-.43 1.22-.541c.535-.242 1.063-.484 1.583-.728l.774-.366 1.139-.553.559-.277.552-.279 1.085-.56c9.106-4.776 15.292-9.965 18.577-15.654 6.96-12.054.881-24.935-16.566-38.067l-1.42-1.064-.863-.662-.837-.656-.813-.652-.787-.646-.384-.321-.379-.32-.738-.637-.537-.474-.523-.472-.676-.624-.652-.62-.628-.614-.304-.305-.299-.305-.579-.605c-6.897-7.332-8.437-13.608-5.306-19.032 1.594-2.76 4.357-5.474 8.284-8.117l.477-.317.751-.483c.34-.214.687-.428 1.042-.642l.538-.32.83-.478.855-.476.659-.356.673-.355.921-.472a87.41 87.41 0 012.167-1.055l.752-.35 1.025-.464.522-.232 1.064-.46.542-.23 1.104-.459.56-.228 1.143-.455.581-.227 1.182-.452 1.207-.45.613-.223 1.247-.447 1.272-.444 1.299-.441.659-.22 1.337-.438 1.364-.436 1.389-.433 1.415-.431 1.442-.429 1.838-.531 1.879-.528 2.308-.628.964-.256zM64.335.835c7.783 0 15.242 1.39 22.141 3.933l.737.277-.467.142-2.28.703-.746.236-1.473.474-1.446.479-1.419.482-1.392.486-1.365.49-.673.246-1.652.62-1.61.627-1.259.505-.619.254-1.218.512C57.147 16.605 48.99 22.553 45.09 29.309c-6.809 11.793-.633 24.506 16.816 37.634l1.42 1.065.862.662.837.657.41.327.799.65.582.484.57.482.736.638.36.318.699.631c.381.35.752.698 1.11 1.043l.53.516.763.77.725.761c6.867 7.383 8.335 13.785 5.072 19.438-2.112 3.657-6.144 7.258-12.086 10.753l-.546.318-.884.5-.91.5a83.75 83.75 0 01-1.576.829l-.815.412-1.003.494-1.029.492-1.055.49-.537.246-1.094.487-1.121.487-1.147.484-.584.241-1.186.482-.603.24-.61.24-1.238.478-1.266.476-1.29.474-1.318.472-1.344.47-.682.234-1.383.467-.701.232-1.423.464-1.448.461-1.848.574-1.889.57-1.54.454-2.15.618C12.643 108.29.336 88 .336 64.835c0-35.346 28.654-64 64-64z" fill="#0080FF"></path></svg>
